<mxfile host="app.diagrams.net" agent="Mozilla/5.0 (Macintosh; Intel Mac OS X 10_15_7) AppleWebKit/537.36 (KHTML, like Gecko) Chrome/134.0.0.0 Safari/537.36" version="26.1.1">
  <diagram name="第 1 页" id="LGCFHPjaNGRxrS4H6lcB">
    <mxGraphModel dx="1178" dy="663" grid="1" gridSize="10" guides="1" tooltips="1" connect="1" arrows="1" fold="1" page="1" pageScale="1" pageWidth="827" pageHeight="1169" math="0" shadow="0">
      <root>
        <mxCell id="0" />
        <mxCell id="1" parent="0" />
        <mxCell id="HhhzIbwPLm0gWM8SSnEa-16" value="" style="group" parent="1" vertex="1" connectable="0">
          <mxGeometry x="29" y="129.5" width="770" height="470" as="geometry" />
        </mxCell>
        <mxCell id="HhhzIbwPLm0gWM8SSnEa-14" value="" style="rounded=0;whiteSpace=wrap;html=1;strokeColor=none;" parent="HhhzIbwPLm0gWM8SSnEa-16" vertex="1">
          <mxGeometry width="770" height="470" as="geometry" />
        </mxCell>
        <mxCell id="HhhzIbwPLm0gWM8SSnEa-15" value="" style="group" parent="HhhzIbwPLm0gWM8SSnEa-16" vertex="1" connectable="0">
          <mxGeometry x="84" y="60.5" width="600" height="349" as="geometry" />
        </mxCell>
        <mxCell id="HhhzIbwPLm0gWM8SSnEa-1" value="" style="rounded=1;whiteSpace=wrap;html=1;fillColor=#e51400;fontColor=#ffffff;strokeColor=#B20000;" parent="HhhzIbwPLm0gWM8SSnEa-15" vertex="1">
          <mxGeometry x="65" y="49" width="220" height="90" as="geometry" />
        </mxCell>
        <mxCell id="HhhzIbwPLm0gWM8SSnEa-2" value="- 专项战略研讨&lt;div&gt;- 特定人才孵化&lt;/div&gt;&lt;div&gt;- 新业务赋能&lt;/div&gt;" style="text;html=1;align=left;verticalAlign=middle;whiteSpace=wrap;rounded=0;fontColor=#FFFFFF;fontStyle=1;fontSize=18;" parent="HhhzIbwPLm0gWM8SSnEa-15" vertex="1">
          <mxGeometry x="110" y="79" width="130" height="30" as="geometry" />
        </mxCell>
        <mxCell id="HhhzIbwPLm0gWM8SSnEa-3" value="" style="rounded=1;whiteSpace=wrap;html=1;fillColor=#fa6800;fontColor=#000000;strokeColor=#C73500;" parent="HhhzIbwPLm0gWM8SSnEa-15" vertex="1">
          <mxGeometry x="330" y="49" width="220" height="90" as="geometry" />
        </mxCell>
        <mxCell id="HhhzIbwPLm0gWM8SSnEa-4" value="- 年度战略宣贯&lt;div&gt;- 角色转型研讨&lt;/div&gt;&lt;div&gt;- 创新技能竞赛&lt;/div&gt;" style="text;html=1;align=left;verticalAlign=middle;whiteSpace=wrap;rounded=0;fontColor=#FFFFFF;fontStyle=1;fontSize=18;" parent="HhhzIbwPLm0gWM8SSnEa-15" vertex="1">
          <mxGeometry x="375" y="79" width="130" height="30" as="geometry" />
        </mxCell>
        <mxCell id="HhhzIbwPLm0gWM8SSnEa-5" value="" style="rounded=1;whiteSpace=wrap;html=1;fillColor=#e51400;fontColor=#ffffff;strokeColor=#B20000;" parent="HhhzIbwPLm0gWM8SSnEa-15" vertex="1">
          <mxGeometry x="330" y="189" width="220" height="90" as="geometry" />
        </mxCell>
        <mxCell id="HhhzIbwPLm0gWM8SSnEa-6" value="- 新员工入职训&lt;div&gt;- 通用技能培训&lt;/div&gt;&lt;div&gt;- 岗位技能认证&lt;/div&gt;" style="text;html=1;align=left;verticalAlign=middle;whiteSpace=wrap;rounded=0;fontColor=#FFFFFF;fontStyle=1;fontSize=18;" parent="HhhzIbwPLm0gWM8SSnEa-15" vertex="1">
          <mxGeometry x="377.5" y="219" width="125" height="30" as="geometry" />
        </mxCell>
        <mxCell id="HhhzIbwPLm0gWM8SSnEa-7" value="" style="rounded=1;whiteSpace=wrap;html=1;fillColor=#fa6800;fontColor=#000000;strokeColor=#C73500;" parent="HhhzIbwPLm0gWM8SSnEa-15" vertex="1">
          <mxGeometry x="65" y="189" width="220" height="90" as="geometry" />
        </mxCell>
        <mxCell id="HhhzIbwPLm0gWM8SSnEa-8" value="- 领导力进阶&lt;div&gt;- 高潜人才营&lt;/div&gt;&lt;div&gt;- 梯队储备班&lt;/div&gt;" style="text;html=1;align=left;verticalAlign=middle;whiteSpace=wrap;rounded=0;fontColor=#FFFFFF;fontStyle=1;fontSize=18;" parent="HhhzIbwPLm0gWM8SSnEa-15" vertex="1">
          <mxGeometry x="120" y="219" width="110" height="30" as="geometry" />
        </mxCell>
        <mxCell id="HhhzIbwPLm0gWM8SSnEa-9" value="" style="endArrow=classic;startArrow=classic;html=1;rounded=0;" parent="HhhzIbwPLm0gWM8SSnEa-15" edge="1">
          <mxGeometry width="50" height="50" relative="1" as="geometry">
            <mxPoint y="320" as="sourcePoint" />
            <mxPoint as="targetPoint" />
          </mxGeometry>
        </mxCell>
        <mxCell id="HhhzIbwPLm0gWM8SSnEa-10" value="战&lt;div&gt;略&lt;/div&gt;&lt;div&gt;关&lt;/div&gt;&lt;div&gt;联&lt;/div&gt;&lt;div&gt;度&lt;/div&gt;" style="edgeLabel;html=1;align=center;verticalAlign=middle;resizable=0;points=[];fontColor=#FF0000;fontSize=16;fontStyle=1" parent="HhhzIbwPLm0gWM8SSnEa-9" vertex="1" connectable="0">
          <mxGeometry x="0.0438" y="1" relative="1" as="geometry">
            <mxPoint y="15" as="offset" />
          </mxGeometry>
        </mxCell>
        <mxCell id="HhhzIbwPLm0gWM8SSnEa-12" value="" style="endArrow=classic;startArrow=classic;html=1;rounded=0;" parent="HhhzIbwPLm0gWM8SSnEa-15" edge="1">
          <mxGeometry width="50" height="50" relative="1" as="geometry">
            <mxPoint x="50" y="349" as="sourcePoint" />
            <mxPoint x="600" y="349" as="targetPoint" />
          </mxGeometry>
        </mxCell>
        <mxCell id="HhhzIbwPLm0gWM8SSnEa-13" value="员工覆盖面" style="edgeLabel;html=1;align=center;verticalAlign=middle;resizable=0;points=[];fontColor=#FF0000;fontSize=16;fontStyle=1" parent="HhhzIbwPLm0gWM8SSnEa-12" vertex="1" connectable="0">
          <mxGeometry x="0.0438" y="1" relative="1" as="geometry">
            <mxPoint x="-27" y="1" as="offset" />
          </mxGeometry>
        </mxCell>
      </root>
    </mxGraphModel>
  </diagram>
</mxfile>
